<svg width="393" height="112" viewBox="0 0 393 112" fill="none" xmlns="http://www.w3.org/2000/svg">
<path d="M4.9848 53.3448V0.669592H22.0224L34.8936 23.7336L47.6904 0.669592H64.0584V53.3448H50.592V19.7904L37.2744 42.9288H31.992L18.4512 19.7904V53.3448H4.9848ZM70.1394 53.3448L91.269 0.669592H104.959L125.865 53.3448H111.357L108.753 45.9048H87.2514L84.573 53.3448H70.1394ZM91.4922 33.7776H104.512L98.1138 15.6984L91.4922 33.7776ZM152.869 53.94C147.612 53.94 143.024 52.8488 139.105 50.6664C135.237 48.4344 132.236 45.2848 130.103 41.2176C127.97 37.1504 126.904 32.3392 126.904 26.784C126.904 22.6176 127.499 18.8976 128.689 15.624C129.929 12.3008 131.69 9.47359 133.972 7.14239C136.253 4.81119 138.981 3.05039 142.156 1.85999C145.38 0.619991 148.951 -8.59375e-06 152.869 -8.59375e-06C156.937 -8.59375e-06 160.657 0.694391 164.029 2.08319C167.452 3.42239 170.279 5.53039 172.511 8.40719C174.793 11.2344 176.231 14.8552 176.826 19.2696H163.509C163.211 17.6824 162.616 16.4176 161.723 15.4752C160.88 14.5328 159.789 13.8384 158.449 13.392C157.16 12.9456 155.672 12.7224 153.985 12.7224C151.505 12.7224 149.422 13.144 147.736 13.9872C146.049 14.8304 144.685 15.9712 143.644 17.4096C142.652 18.7984 141.933 20.3608 141.486 22.0968C141.04 23.7832 140.817 25.4944 140.817 27.2304C140.817 29.5616 141.213 31.8184 142.007 34.0008C142.85 36.1336 144.189 37.8696 146.025 39.2088C147.909 40.548 150.439 41.2176 153.613 41.2176C155.201 41.2176 156.713 41.0192 158.152 40.6224C159.59 40.2256 160.805 39.6056 161.797 38.7624C162.789 37.8696 163.409 36.7288 163.657 35.34H151.233V24.0312H177.793V25.9656C177.793 31.868 176.901 36.9024 175.115 41.0688C173.329 45.2352 170.601 48.4344 166.931 50.6664C163.261 52.8488 158.573 53.94 152.869 53.94ZM209.208 53.94C203.95 53.94 199.585 53.0224 196.113 51.1872C192.691 49.3024 190.136 46.5248 188.45 42.8544C186.813 39.1344 185.995 34.5464 185.995 29.0904V0.669592H199.461V29.9088C199.461 31.7936 199.734 33.6288 200.28 35.4144C200.875 37.1504 201.892 38.5888 203.33 39.7296C204.768 40.8208 206.777 41.3664 209.356 41.3664C211.985 41.3664 213.969 40.796 215.308 39.6552C216.648 38.5144 217.54 37.076 217.987 35.34C218.483 33.5544 218.731 31.744 218.731 29.9088V0.669592H232.197V29.0904C232.197 34.4968 231.379 39.06 229.742 42.78C228.105 46.4504 225.6 49.228 222.228 51.1128C218.855 52.9976 214.515 53.94 209.208 53.94ZM243.291 53.3448V0.669592H256.758V53.3448H243.291Z" fill="#F2F2F2"/>
<path d="M23.872 111.49C19.2213 111.49 15.3387 110.508 12.224 108.546C9.152 106.54 6.848 103.81 5.312 100.354C3.81867 96.8551 3.072 92.8657 3.072 88.3857C3.072 83.9484 3.84 80.0017 5.376 76.5457C6.912 73.0471 9.216 70.2951 12.288 68.2897C15.4027 66.2417 19.3067 65.2177 24 65.2177C27.328 65.2177 30.1867 65.7511 32.576 66.8177C35.008 67.8417 36.9707 69.2711 38.464 71.1057C39.9573 72.9404 40.9813 75.0951 41.536 77.5697H35.904C35.264 75.3511 33.8773 73.5804 31.744 72.2577C29.6533 70.9351 27.008 70.2737 23.808 70.2737C20.224 70.2737 17.3227 71.1271 15.104 72.8337C12.928 74.4977 11.328 76.6951 10.304 79.4257C9.28 82.1137 8.768 85.0364 8.768 88.1937C8.768 91.5217 9.30133 94.5724 10.368 97.3457C11.4347 100.119 13.0987 102.338 15.36 104.002C17.6213 105.623 20.5013 106.434 24 106.434C26.1333 106.434 28.032 106.135 29.696 105.538C31.4027 104.94 32.8107 104.087 33.92 102.978C35.072 101.868 35.8613 100.588 36.288 99.1377H42.368C41.728 101.612 40.576 103.788 38.912 105.666C37.2907 107.5 35.2213 108.93 32.704 109.954C30.1867 110.978 27.2427 111.49 23.872 111.49ZM65.3505 111.362C61.8092 111.362 58.8438 110.636 56.4545 109.186C54.0652 107.692 52.2732 105.644 51.0785 103.042C49.9265 100.439 49.3505 97.4737 49.3505 94.1457C49.3505 90.7751 49.9478 87.8097 51.1425 85.2497C52.3372 82.6471 54.1292 80.5991 56.5185 79.1057C58.9078 77.6124 61.8945 76.8657 65.4785 76.8657C69.0198 76.8657 71.9638 77.6124 74.3105 79.1057C76.6998 80.5991 78.4705 82.6471 79.6225 85.2497C80.8172 87.8097 81.4145 90.7751 81.4145 94.1457C81.4145 97.4737 80.8172 100.439 79.6225 103.042C78.4278 105.644 76.6358 107.692 74.2465 109.186C71.8998 110.636 68.9345 111.362 65.3505 111.362ZM65.3505 106.562C67.8252 106.562 69.8305 106.007 71.3665 104.898C72.9452 103.788 74.0972 102.295 74.8225 100.418C75.5905 98.5404 75.9745 96.4497 75.9745 94.1457C75.9745 91.8417 75.5905 89.7511 74.8225 87.8737C74.0972 85.9964 72.9452 84.5031 71.3665 83.3937C69.8305 82.2844 67.8252 81.7297 65.3505 81.7297C62.9185 81.7297 60.9132 82.2844 59.3345 83.3937C57.7985 84.5031 56.6465 85.9964 55.8785 87.8737C55.1532 89.7511 54.7905 91.8417 54.7905 94.1457C54.7905 96.4497 55.1532 98.5404 55.8785 100.418C56.6465 102.295 57.7985 103.788 59.3345 104.898C60.9132 106.007 62.9185 106.562 65.3505 106.562ZM89.973 110.978V77.2497H95.221L95.477 82.3697C96.245 81.1324 97.2263 80.1084 98.421 79.2977C99.6157 78.4871 100.917 77.8897 102.325 77.5057C103.776 77.0791 105.184 76.8657 106.549 76.8657C109.834 76.8657 112.394 77.5484 114.229 78.9137C116.106 80.2791 117.429 82.1351 118.197 84.4817C119.008 86.7857 119.413 89.4097 119.413 92.3537V110.978H113.973V93.8257C113.973 92.2471 113.866 90.7324 113.653 89.2817C113.482 87.8311 113.098 86.5297 112.501 85.3777C111.946 84.2257 111.136 83.3297 110.069 82.6897C109.002 82.0071 107.573 81.6657 105.781 81.6657C103.562 81.6657 101.664 82.2844 100.085 83.5217C98.549 84.7591 97.3757 86.4231 96.565 88.5137C95.797 90.6044 95.413 92.9511 95.413 95.5537V110.978H89.973ZM129.065 110.978V77.2497H134.313L134.569 82.3697C135.337 81.1324 136.319 80.1084 137.513 79.2977C138.708 78.4871 140.009 77.8897 141.417 77.5057C142.868 77.0791 144.276 76.8657 145.641 76.8657C148.927 76.8657 151.487 77.5484 153.321 78.9137C155.199 80.2791 156.521 82.1351 157.289 84.4817C158.1 86.7857 158.505 89.4097 158.505 92.3537V110.978H153.065V93.8257C153.065 92.2471 152.959 90.7324 152.745 89.2817C152.575 87.8311 152.191 86.5297 151.593 85.3777C151.039 84.2257 150.228 83.3297 149.161 82.6897C148.095 82.0071 146.665 81.6657 144.873 81.6657C142.655 81.6657 140.756 82.2844 139.177 83.5217C137.641 84.7591 136.468 86.4231 135.657 88.5137C134.889 90.6044 134.505 92.9511 134.505 95.5537V110.978H129.065ZM182.75 111.362C179.166 111.362 176.201 110.636 173.854 109.186C171.507 107.692 169.758 105.644 168.606 103.042C167.454 100.439 166.878 97.4737 166.878 94.1457C166.878 90.7751 167.475 87.8097 168.67 85.2497C169.907 82.6471 171.699 80.5991 174.046 79.1057C176.393 77.6124 179.273 76.8657 182.686 76.8657C185.331 76.8657 187.593 77.3777 189.47 78.4017C191.39 79.3831 192.969 80.7057 194.206 82.3697C195.443 84.0337 196.339 85.8684 196.894 87.8737C197.449 89.8364 197.683 91.8204 197.598 93.8257C197.555 94.2097 197.513 94.5937 197.47 94.9777C197.47 95.3617 197.449 95.7457 197.406 96.1297H172.382C172.553 98.0924 173.043 99.8631 173.854 101.442C174.665 103.02 175.817 104.279 177.31 105.218C178.803 106.114 180.659 106.562 182.878 106.562C183.987 106.562 185.097 106.434 186.206 106.178C187.358 105.879 188.382 105.388 189.278 104.706C190.217 104.023 190.878 103.106 191.262 101.954H196.83C196.318 104.13 195.358 105.922 193.95 107.33C192.542 108.695 190.857 109.719 188.894 110.402C186.931 111.042 184.883 111.362 182.75 111.362ZM172.51 91.3937H192.03C191.987 89.4737 191.561 87.7884 190.75 86.3377C189.939 84.8871 188.83 83.7564 187.422 82.9457C186.057 82.1351 184.414 81.7297 182.494 81.7297C180.403 81.7297 178.633 82.1777 177.182 83.0737C175.774 83.9697 174.686 85.1431 173.918 86.5937C173.15 88.0444 172.681 89.6444 172.51 91.3937ZM221.15 111.362C217.609 111.362 214.665 110.636 212.318 109.186C210.014 107.692 208.286 105.644 207.134 103.042C206.025 100.439 205.47 97.4951 205.47 94.2097C205.47 91.0097 206.046 88.1084 207.198 85.5057C208.393 82.8604 210.185 80.7697 212.574 79.2337C215.006 77.6551 218.078 76.8657 221.79 76.8657C224.094 76.8657 226.142 77.2497 227.934 78.0177C229.769 78.7857 231.284 79.9164 232.478 81.4097C233.673 82.8604 234.505 84.6951 234.974 86.9137H229.406C228.766 85.0364 227.742 83.7137 226.334 82.9457C224.969 82.1351 223.348 81.7297 221.47 81.7297C218.91 81.7297 216.862 82.3271 215.326 83.5217C213.79 84.7164 212.66 86.2737 211.934 88.1937C211.252 90.0711 210.91 92.0764 210.91 94.2097C210.91 96.4284 211.273 98.4764 211.998 100.354C212.724 102.231 213.854 103.746 215.39 104.898C216.926 106.007 218.91 106.562 221.342 106.562C223.134 106.562 224.82 106.178 226.398 105.41C228.02 104.642 229.086 103.276 229.598 101.314H235.23C234.804 103.618 233.886 105.516 232.478 107.01C231.113 108.503 229.428 109.612 227.422 110.338C225.46 111.02 223.369 111.362 221.15 111.362ZM257.101 110.978C254.541 110.978 252.472 110.594 250.893 109.826C249.357 109.058 248.227 107.863 247.501 106.242C246.819 104.62 246.477 102.572 246.477 100.098V82.0497H240.973V77.2497H246.477V67.2017H251.917V77.2497H260.941V82.0497H251.917V99.5217C251.917 101.826 252.323 103.532 253.133 104.642C253.987 105.708 255.693 106.242 258.253 106.242H260.749V110.978H257.101Z" fill="#0093C8"/>
<path d="M282.417 95.1729L282.417 110.29H297.535C297.535 106.168 296.161 102.045 293.412 99.2959C290.663 96.5473 285.853 94.4858 282.417 95.1729ZM349.072 43.6359C367.625 62.1892 376.558 86.2399 377.246 110.29H392.363C392.363 82.8041 381.368 53.9433 360.067 32.6413C338.765 11.3394 309.904 0.344788 282.417 0.344788L282.417 15.4623C306.468 16.1495 330.519 25.0826 349.072 43.6359Z" fill="#0093C8"/>
<path d="M282.417 31.9543L282.417 47.0718C298.222 47.7589 314.027 53.9434 326.396 66.3123C338.764 78.6812 344.949 94.4859 344.949 110.978L360.066 110.978C361.441 90.3629 353.195 69.7481 338.077 54.6305C322.96 39.513 302.345 31.2671 282.417 31.9543Z" fill="#0093C8"/>
<path d="M282.417 63.5636L282.417 78.6811C290.663 78.6811 298.222 82.1169 304.406 88.3014C310.591 94.4858 313.339 102.732 314.027 110.291L329.144 110.29C329.831 98.6088 324.334 86.2399 315.401 77.3068C306.468 68.3737 294.099 62.8764 282.417 63.5636Z" fill="#0093C8"/>
<path d="M349.072 43.6359C367.625 62.1892 376.558 86.2399 377.246 110.29H392.363C392.363 82.8041 381.368 53.9433 360.067 32.6413C338.765 11.3394 309.904 0.344788 282.417 0.344788L282.417 15.4623C306.468 16.1495 330.519 25.0826 349.072 43.6359Z" fill="#F2F2F2"/>
<path d="M282.417 63.5636L282.417 78.6811C290.663 78.6811 298.222 82.1169 304.406 88.3014C310.591 94.4858 313.339 102.732 314.027 110.291L329.144 110.29C329.831 98.6088 324.334 86.2399 315.401 77.3068C306.468 68.3737 294.099 62.8764 282.417 63.5636Z" fill="#F2F2F2"/>
</svg>
